<svg width="15.710938" height="13.980469" viewBox="0 0 15.7109 13.9805" fill="none" xmlns="http://www.w3.org/2000/svg" xmlns:xlink="http://www.w3.org/1999/xlink">
	<desc>
			Created with Pixso.
	</desc>
	<path id="path" d="M7.85352 0C3.52344 0 0 2.875 0 6.4082C0 8.29492 0.994141 10.0488 2.74219 11.2676L2.23242 13.3984C2.17188 13.5664 2.21875 13.7539 2.35352 13.8711C2.43359 13.9434 2.53711 13.9805 2.64258 13.9805C2.70898 13.9805 2.77539 13.9648 2.83789 13.9336L5.34766 12.4746C6.16602 12.7012 7.00977 12.8145 7.85742 12.8145C12.1875 12.8145 15.7109 9.93945 15.7109 6.40625C15.707 2.87305 12.1855 0 7.85352 0ZM5.04688 6.66797C4.48828 6.66797 4.0332 6.21484 4.0332 5.6543C4.0332 5.0957 4.48633 4.64062 5.04688 4.64062C5.60547 4.64062 6.06055 5.09375 6.06055 5.6543C6.05859 6.21484 5.60547 6.66797 5.04688 6.66797ZM10.9219 6.66797C10.3633 6.66797 9.9082 6.21484 9.9082 5.6543C9.9082 5.0957 10.3613 4.64062 10.9219 4.64062C11.4805 4.64062 11.9355 5.09375 11.9355 5.6543C11.9336 6.21484 11.4805 6.66797 10.9219 6.66797Z" fill-rule="nonzero" fill="#41CE32"/>
	<defs/>
</svg>
