<?xml version="1.0" standalone="no"?><!DOCTYPE svg PUBLIC "-//W3C//DTD SVG 1.1//EN" "http://www.w3.org/Graphics/SVG/1.1/DTD/svg11.dtd"><svg t="1610102943908" class="icon" viewBox="0 0 1024 1024" version="1.1" xmlns="http://www.w3.org/2000/svg" p-id="2193" xmlns:xlink="http://www.w3.org/1999/xlink" width="200" height="200"><defs><style type="text/css"></style></defs><path d="M386.36 179.25c-8.99 0-17.16-6.11-19.41-15.23-2.64-10.73 3.92-21.56 14.64-24.2l12.89-3.17c10.73-2.64 21.56 3.91 24.2 14.64 2.64 10.73-3.91 21.56-14.64 24.2l-12.9 3.17c-1.59 0.4-3.2 0.59-4.78 0.59z" fill="#004039" p-id="2194"></path><path d="M433.31 405.73l-45.52-185.05 227.98-56.08-46.48 109.55 92.01 75.49z" fill="#B4E7B4" p-id="2195"></path><path d="M369.96 483.1c0 0.01 0 0.01 0 0l65 264.2c2.24 9.12 10.41 15.23 19.41 15.23 1.58 0 3.19-0.19 4.79-0.58 10.73-2.64 17.28-13.47 14.64-24.2l-60.22-244.77 305.63-75.19c22.2-5.46 39.13-22.7 44.18-45s-2.79-45.15-20.46-59.65l-76.61-62.85 38.7-91.22c8.93-21.04 5.27-44.93-9.55-62.33s-37.82-24.83-60.02-19.36l-187.28 46.07c-10.73 2.64-17.28 13.47-14.64 24.2 2.64 10.73 13.46 17.28 24.2 14.64L645 116.22c7.51-1.85 14.99 0.56 20.01 6.46 5.02 5.89 6.21 13.66 3.18 20.78l-44.55 105a19.988 19.988 0 0 0 5.73 23.27l88.18 72.34c5.98 4.91 8.53 12.34 6.82 19.88-1.71 7.54-7.22 13.15-14.73 15l-305.63 75.19-64.64-262.75c10.15-3.04 16.23-13.54 13.67-23.93-2.64-10.73-13.47-17.28-24.2-14.64l-18.44 4.54c-10.73 2.64-17.28 13.47-14.64 24.2l74.2 301.54z" fill="#004039" p-id="2196"></path><path d="M694.78 636.62c-48.72-19.72-115.49-32.81-188.01-36.87-11.03-0.64-20.47 7.82-21.09 18.85-0.62 11.03 7.82 20.47 18.85 21.09 68.25 3.82 130.48 15.9 175.24 34.01 37.47 15.17 60.75 34.42 60.75 50.26 0 14.27-19.82 36.42-75.45 55.77-55.25 19.23-129.12 29.81-208 29.81s-152.74-10.59-208-29.81c-55.63-19.36-75.45-41.5-75.45-55.77 0-25.85 59.76-61.91 170.5-77.83 10.93-1.57 18.52-11.71 16.95-22.64-1.57-10.93-11.71-18.52-22.64-16.95-57.01 8.2-105.9 22.1-141.38 40.22-52.42 26.76-63.43 56.76-63.43 77.21 0 26.44 17.75 64.13 102.3 93.55 59.37 20.66 137.91 32.04 221.14 32.04s161.77-11.38 221.14-32.04c84.56-29.42 102.3-67.11 102.3-93.55 0.03-24.02-14.85-58.67-85.72-87.35z" fill="#004039" p-id="2197"></path></svg>