<svg width="16.000000" height="16.000000" viewBox="0 0 16 16" fill="none" xmlns="http://www.w3.org/2000/svg" xmlns:xlink="http://www.w3.org/1999/xlink">
	<desc>
			Created with Pixso.
	</desc>
	<g clip-path="url(#clip27_384)">
		<path id="path" d="M3.3291 0.1474C3.65222 -0.00430298 3.97534 -0.00430298 4.29846 0.1474C4.51868 0.26088 4.71643 0.405319 4.89136 0.58075L7.17212 2.57643L8.80298 2.57643L11.0837 0.58075C11.2589 0.405624 11.4567 0.261185 11.6766 0.1474C12.0229 0.0237579 12.3521 0.0592651 12.6639 0.253922C12.9758 0.448563 13.1523 0.728561 13.1934 1.09392C13.2057 1.38013 13.1221 1.63481 12.9425 1.85799C12.7833 2.01894 12.6161 2.17099 12.4408 2.31413C12.3398 2.40825 12.2334 2.49568 12.1215 2.57643L13.5469 2.57643C14.2087 2.59772 14.7676 2.8486 15.2233 3.32907C15.707 3.78348 15.9617 4.34227 15.9873 5.00543L15.9873 11.5626C16.0042 11.8954 15.9851 12.2261 15.9303 12.5548C15.7739 13.2467 15.3938 13.7789 14.7899 14.1513C14.3879 14.3993 13.9508 14.5209 13.4785 14.5162L3.00977 14.5162C2.66565 14.5338 2.32349 14.5148 1.9834 14.4592C1.30005 14.2983 0.775391 13.9182 0.409668 13.3188C0.152832 12.9194 0.0235596 12.4823 0.0219727 12.0074L0.0219727 5.51862C-0.00744629 5.20311 -0.00744629 4.8876 0.0219727 4.57208C0.128784 4.01479 0.394165 3.5475 0.817993 3.17026C1.24194 2.793 1.73682 2.58365 2.30273 2.54222L3.79663 2.54222C3.55713 2.37115 3.35193 2.16588 3.13525 1.98341C2.86084 1.73134 2.73914 1.41963 2.77026 1.04831C2.79895 0.650223 2.98523 0.349915 3.3291 0.1474ZM3.06677 4.57208C2.59338 4.6559 2.29309 4.92958 2.16589 5.39316C2.14539 5.53761 2.14539 5.68207 2.16589 5.82651L2.16589 11.2205C2.13745 11.8012 2.39978 12.1814 2.95276 12.3609C3.11169 12.4149 3.27515 12.4415 3.44312 12.4407L12.7145 12.4407C13.2268 12.46 13.5879 12.2357 13.7977 11.7679C13.8973 11.5264 13.9354 11.2755 13.9119 11.0153L13.9119 5.99757C13.9381 5.81511 13.9381 5.63266 13.9119 5.4502C13.8025 5.06001 13.5554 4.80153 13.1705 4.67473C12.9417 4.59377 12.7061 4.55956 12.4635 4.57208L3.60278 4.57208C3.42407 4.55949 3.24548 4.55949 3.06677 4.57208Z" fill-rule="nonzero" fill="#20B0E3"/>
		<path id="path" d="M4.93701 6.35109C5.2334 6.33612 5.49573 6.42355 5.72388 6.61337C5.98315 6.83499 6.11621 7.11629 6.12305 7.45726L6.12305 8.59764C6.13354 8.86798 6.0575 9.11127 5.8949 9.32748C5.6449 9.63759 5.32129 9.77809 4.92395 9.74902C4.52673 9.71996 4.22693 9.53383 4.02466 9.19064C3.90393 8.94582 3.85449 8.68732 3.87646 8.41518L3.87646 7.2748C3.96472 6.70442 4.36389 6.41933 4.93701 6.35109ZM10.8328 6.35109C11.15 6.32829 11.4282 6.42188 11.6671 6.63181C11.9061 6.84174 12.0348 7.10548 12.053 7.42305L12.053 8.56343C12.0718 8.83154 12.0148 9.08244 11.882 9.3161C11.6555 9.64671 11.3419 9.81201 10.9412 9.81201C10.5404 9.81201 10.2268 9.64671 10.0004 9.3161C9.85278 9.06573 9.79199 8.79585 9.81787 8.50642L9.81787 7.36603C9.88513 6.77106 10.2386 6.42514 10.8328 6.35109Z" fill-rule="nonzero" fill="#20B0E3"/>
	</g>
	<defs>
		<clipPath id="clip27_384">
			<rect id="bilibili" width="16.000000" height="16.000000" fill="white"/>
		</clipPath>
	</defs>
</svg>
