<?xml version="1.0" standalone="no"?><!DOCTYPE svg PUBLIC "-//W3C//DTD SVG 1.1//EN" "http://www.w3.org/Graphics/SVG/1.1/DTD/svg11.dtd"><svg t="1610102833716" class="icon" viewBox="0 0 1024 1024" version="1.1" xmlns="http://www.w3.org/2000/svg" p-id="3649" xmlns:xlink="http://www.w3.org/1999/xlink" width="200" height="200"><defs><style type="text/css"></style></defs><path d="M342.78 145.71h11.94c11.05 0 20-8.95 20-20s-8.95-20-20-20h-11.94c-11.05 0-20 8.95-20 20s8.96 20 20 20z" fill="#004039" p-id="3650"></path><path d="M804.2 105.71H413.12c-11.05 0-20 8.95-20 20s8.95 20 20 20H804.2c11.03 0 20 8.97 20 20v692.58c0 11.03-8.97 20-20 20H303.6c-11.03 0-20-8.97-20-20V629.96h157.68c11.05 0 20-8.95 20-20s-8.95-20-20-20H283.6v-55.88h157.68c11.05 0 20-8.95 20-20s-8.95-20-20-20H283.6V438.2h157.68c11.05 0 20-8.95 20-20s-8.95-20-20-20H283.6v-27.52c0-16.11-6.62-31.79-18.18-43.02l-59.57-57.91c-7.15-6.96-8.13-17.89-2.31-26l64.34-89.7c3.07-4.28 7.8-7.22 12.99-8.08 10.9-1.8 18.27-12.09 16.47-22.99-1.8-10.9-12.1-18.27-22.99-16.47-15.8 2.61-29.64 11.21-38.98 24.23l-64.34 89.7c-8.37 11.67-12.28 25.98-11.01 40.28s7.64 27.7 17.94 37.71l59.57 57.91c3.85 3.74 6.06 8.97 6.06 14.34v487.6c0 33.08 26.92 60 60 60h500.6c33.08 0 60-26.92 60-60V165.71c0.01-33.09-26.91-60-59.99-60z" fill="#004039" p-id="3651"></path><path d="M750.76 837.98H350.8c-13.44 0-24.34-10.9-24.34-24.34V656.82H775.1v156.82c0 13.44-10.9 24.34-24.34 24.34z" fill="#B4E7B4" p-id="3652"></path></svg>