<?xml version="1.0" standalone="no"?><!DOCTYPE svg PUBLIC "-//W3C//DTD SVG 1.1//EN" "http://www.w3.org/Graphics/SVG/1.1/DTD/svg11.dtd"><svg t="1610102866955" class="icon" viewBox="0 0 1024 1024" version="1.1" xmlns="http://www.w3.org/2000/svg" p-id="1639" xmlns:xlink="http://www.w3.org/1999/xlink" width="200" height="200"><defs><style type="text/css"></style></defs><path d="M234.43 671.59h309.46l131.27-469H365.7z" fill="#B4E7B4" p-id="1640"></path><path d="M292.41 270.01c-1.76 0-3.54-0.23-5.32-0.72-10.65-2.93-16.91-13.94-13.97-24.59l1.61-5.83c2.93-10.65 13.95-16.9 24.59-13.97 10.65 2.93 16.9 13.95 13.97 24.59l-1.6 5.82c-2.45 8.88-10.5 14.7-19.28 14.7z" fill="#004039" p-id="1641"></path><path d="M831.59 264.86c-10.66-2.92-21.66 3.35-24.58 14L676.56 754.82c-8.33 23.19-19.3 39.08-33.53 48.58-12.83 8.56-29.22 12.72-51.57 13.09l-378.21 0.22h-0.01c-7.29 0-19.1-5.07-27.8-16.21-6.75-8.64-13.47-23.26-10.47-45.68h386.34c26.83 0 50.59-18.05 57.8-43.89l142.86-512.61c5.08-18.23 1.43-37.33-10.01-52.4s-28.86-23.71-47.78-23.71H338.63c-18.99 0-35.55 12.8-40.34 31.16l-6.95 25.23c-2.93 10.65 3.32 21.66 13.97 24.59 10.65 2.94 21.66-3.32 24.59-13.97l6.99-25.39c0.03-0.12 0.06-0.24 0.09-0.35 0.19-0.75 0.87-1.28 1.65-1.28h365.55c6.31 0 12.11 2.88 15.93 7.9 3.82 5.02 5.03 11.39 3.34 17.47L580.58 700.18c-2.4 8.61-10.32 14.63-19.27 14.63H185.1l109.55-397.64c2.93-10.65-3.32-21.66-13.97-24.59-10.65-2.94-21.66 3.32-24.59 13.97l-117.68 427.1c-0.04 0.15-0.08 0.3-0.12 0.44-8.69 34.64-3.15 66.96 15.62 91 15.22 19.5 37.95 31.6 59.33 31.6h0.03l378.37-0.22h0.3c30.46-0.48 53.75-6.77 73.29-19.82 21.8-14.55 37.91-37.16 49.26-69.14 0.16-0.46 0.31-0.93 0.44-1.4l130.65-476.68c2.93-10.65-3.34-21.65-13.99-24.57z" fill="#004039" p-id="1642"></path><path d="M617.96 301.3H361.31c-11.05 0-20-8.95-20-20s8.95-20 20-20h256.64c11.05 0 20 8.95 20 20s-8.94 20-19.99 20zM479.26 406.47H340.17c-11.05 0-20-8.95-20-20s8.95-20 20-20h139.09c11.05 0 20 8.95 20 20s-8.95 20-20 20z" fill="#004039" p-id="1643"></path></svg>