<?xml version="1.0" standalone="no"?><!DOCTYPE svg PUBLIC "-//W3C//DTD SVG 1.1//EN" "http://www.w3.org/Graphics/SVG/1.1/DTD/svg11.dtd"><svg t="1610102897663" class="icon" viewBox="0 0 1024 1024" version="1.1" xmlns="http://www.w3.org/2000/svg" p-id="1917" xmlns:xlink="http://www.w3.org/1999/xlink" width="200" height="200"><defs><style type="text/css"></style></defs><path d="M744.74 947.03H279.26c-33.08 0-60-26.92-60-60V314.78c0-11.05 8.95-20 20-20s20 8.95 20 20v572.25c0 11.03 8.97 20 20 20h465.47c11.03 0 20-8.97 20-20V136.97c0-11.03-8.97-20-20-20H279.26c-11.03 0-20 8.97-20 20v41.11c0 11.05-8.95 20-20 20s-20-8.95-20-20v-41.11c0-33.08 26.92-60 60-60h465.47c33.08 0 60 26.92 60 60v750.07c0.01 33.08-26.91 59.99-59.99 59.99z" fill="#004039" p-id="1918"></path><path d="M239.26 272.4c-11.05 0-20-8.95-20-20v-11.94c0-11.05 8.95-20 20-20s20 8.95 20 20v11.94c0 11.05-8.95 20-20 20zM685.2 256.12H342.78c-11.05 0-20-8.95-20-20s8.95-20 20-20H685.2c11.05 0 20 8.95 20 20s-8.96 20-20 20zM685.2 431.7H342.78c-11.05 0-20-8.95-20-20s8.95-20 20-20H685.2c11.05 0 20 8.95 20 20s-8.96 20-20 20zM685.2 607.27H342.78c-11.05 0-20-8.95-20-20s8.95-20 20-20H685.2c11.05 0 20 8.95 20 20s-8.96 20-20 20zM444.25 782.84H342.78c-11.05 0-20-8.95-20-20s8.95-20 20-20h101.47c11.05 0 20 8.95 20 20s-8.95 20-20 20z" fill="#004039" p-id="1919"></path><path d="M584.28 817.38v-36.02h-40.7c-10.97 0-19.95-8.98-19.95-19.95 0-10.97 8.98-19.95 19.95-19.95h40.7v-33.19c0-10.11 10.95-16.43 19.7-11.38l94.69 54.66c8.67 5.01 8.67 17.52 0 22.53l-94.69 54.67c-8.75 5.06-19.7-1.26-19.7-11.37z" fill="#B4E7B4" p-id="1920"></path></svg>