<?xml version="1.0" encoding="UTF-8"?>
<svg id="_图层_2" data-name="图层 2" xmlns="http://www.w3.org/2000/svg" xmlns:xlink="http://www.w3.org/1999/xlink" viewBox="0 0 471.23 56.33">
  <defs>
    <style>
      .cls-1 {
        fill: url(#_未命名的渐变_9);
      }

      .cls-2 {
        fill: #004098;
      }
    </style>
    <radialGradient id="_未命名的渐变_9" data-name="未命名的渐变 9" cx="16.3" cy="26.66" fx="16.3" fy="26.66" r="26.4" gradientUnits="userSpaceOnUse">
      <stop offset="0" stop-color="#f6ab00"/>
      <stop offset="1" stop-color="#ffe100"/>
    </radialGradient>
  </defs>
  <g id="_图层_1-2" data-name="图层 1">
    <g>
      <g>
        <path class="cls-2" d="m88.64,51.49l-2.84-4.94h-1.55v4.94h-2.03v-12.35h4.26c.95,0,1.75.17,2.41.5.66.33,1.15.78,1.47,1.33.33.56.49,1.18.49,1.87,0,.81-.23,1.54-.7,2.19-.47.66-1.19,1.1-2.16,1.34l3.06,5.12h-2.42Zm-4.39-6.56h2.24c.76,0,1.33-.19,1.71-.57.38-.38.58-.89.58-1.53s-.19-1.14-.57-1.5c-.38-.36-.95-.54-1.72-.54h-2.24v4.14Z"/>
        <path class="cls-2" d="m102,47.35h-7.48c.06.78.35,1.41.87,1.88.52.47,1.16.71,1.92.71,1.09,0,1.86-.46,2.31-1.37h2.19c-.3.9-.83,1.64-1.61,2.21-.78.57-1.74.86-2.89.86-.94,0-1.77-.21-2.51-.63-.74-.42-1.32-1.01-1.74-1.78-.42-.76-.63-1.65-.63-2.66s.2-1.89.61-2.66c.41-.76.98-1.35,1.72-1.77.74-.41,1.59-.62,2.55-.62s1.75.2,2.47.6,1.29.97,1.69,1.7c.4.73.6,1.57.6,2.51,0,.37-.02.7-.07.99Zm-2.04-1.63c-.01-.75-.28-1.34-.8-1.79-.52-.45-1.17-.67-1.94-.67-.7,0-1.3.22-1.79.67s-.79,1.05-.89,1.8h5.42Z"/>
        <path class="cls-2" d="m105.19,51.23c-.61-.28-1.09-.66-1.45-1.14-.36-.48-.54-1.01-.57-1.61h2.1c.04.41.23.76.59,1.04s.81.42,1.36.42,1.01-.11,1.32-.33c.31-.22.47-.5.47-.84,0-.37-.17-.64-.52-.82-.35-.18-.9-.37-1.66-.59-.73-.2-1.33-.4-1.79-.59-.46-.19-.86-.48-1.2-.87s-.51-.91-.51-1.55c0-.52.15-1,.46-1.43s.75-.77,1.32-1.02c.57-.25,1.23-.37,1.98-.37,1.11,0,2.01.28,2.69.84.68.56,1.04,1.33,1.09,2.3h-2.03c-.04-.44-.21-.79-.53-1.05-.32-.26-.75-.39-1.3-.39s-.94.1-1.23.3c-.28.2-.43.47-.43.8,0,.26.09.48.28.66.19.18.42.32.69.42s.68.23,1.21.38c.71.19,1.29.38,1.75.58s.85.48,1.18.86.5.88.52,1.51c0,.56-.15,1.05-.46,1.49-.31.44-.74.78-1.31,1.03-.56.25-1.22.37-1.98.37s-1.46-.14-2.07-.42Z"/>
        <path class="cls-2" d="m121.74,47.35h-7.48c.06.78.35,1.41.87,1.88.52.47,1.16.71,1.92.71,1.09,0,1.86-.46,2.31-1.37h2.19c-.3.9-.83,1.64-1.61,2.21-.78.57-1.74.86-2.89.86-.94,0-1.77-.21-2.51-.63-.74-.42-1.32-1.01-1.74-1.78-.42-.76-.63-1.65-.63-2.66s.2-1.89.61-2.66c.41-.76.98-1.35,1.72-1.77.74-.41,1.59-.62,2.55-.62s1.75.2,2.47.6,1.29.97,1.69,1.7c.4.73.6,1.57.6,2.51,0,.37-.02.7-.07.99Zm-2.04-1.63c-.01-.75-.28-1.34-.8-1.79-.52-.45-1.17-.67-1.94-.67-.7,0-1.3.22-1.79.67s-.79,1.05-.89,1.8h5.42Z"/>
        <path class="cls-2" d="m123.38,43.94c.41-.76.97-1.35,1.67-1.77.7-.42,1.48-.63,2.34-.63.77,0,1.44.15,2.02.45.57.3,1.03.68,1.38,1.13v-1.42h2.04v9.79h-2.04v-1.46c-.34.46-.81.85-1.4,1.15-.59.31-1.27.46-2.03.46-.84,0-1.61-.22-2.31-.65-.7-.43-1.25-1.04-1.66-1.81s-.61-1.65-.61-2.64.2-1.85.61-2.61Zm6.98.89c-.28-.5-.64-.88-1.09-1.14s-.94-.39-1.46-.39-1.01.13-1.46.38c-.45.25-.81.63-1.09,1.12-.28.49-.42,1.07-.42,1.75s.14,1.27.42,1.78.65.9,1.1,1.16c.46.27.94.4,1.45.4s1.01-.13,1.46-.39.81-.64,1.09-1.15.42-1.09.42-1.77-.14-1.26-.42-1.76Z"/>
        <path class="cls-2" d="m138.34,41.96c.49-.28,1.07-.42,1.75-.42v2.1h-.52c-.79,0-1.39.2-1.8.6s-.61,1.1-.61,2.1v5.15h-2.03v-9.79h2.03v1.42c.3-.5.69-.88,1.18-1.16Z"/>
        <path class="cls-2" d="m141.54,43.93c.41-.76.97-1.35,1.7-1.77.72-.41,1.55-.62,2.49-.62,1.18,0,2.16.28,2.94.84s1.3,1.36,1.57,2.41h-2.19c-.18-.49-.46-.86-.85-1.14s-.88-.41-1.47-.41c-.83,0-1.49.29-1.98.88-.49.59-.74,1.41-.74,2.46s.25,1.88.74,2.47c.49.59,1.15.89,1.98.89,1.17,0,1.95-.51,2.33-1.55h2.19c-.28.99-.82,1.79-1.6,2.37-.78.59-1.75.88-2.91.88-.94,0-1.77-.21-2.49-.63-.72-.42-1.29-1.01-1.7-1.78s-.61-1.65-.61-2.66.2-1.89.61-2.66Z"/>
        <path class="cls-2" d="m158.96,42.02c.59.32,1.05.79,1.39,1.42.34.63.51,1.39.51,2.27v5.77h-2.01v-5.47c0-.88-.22-1.55-.66-2.02s-1.04-.7-1.79-.7-1.36.23-1.8.7-.67,1.14-.67,2.02v5.47h-2.03v-13.15h2.03v4.49c.34-.41.78-.73,1.31-.96s1.1-.34,1.73-.34c.75,0,1.41.16,2,.48Z"/>
        <path class="cls-2" d="m167.51,42.04c.56-.96,1.33-1.71,2.29-2.25s2.02-.81,3.17-.81c1.31,0,2.48.32,3.51.97,1.02.65,1.77,1.56,2.23,2.75h-2.43c-.32-.65-.76-1.14-1.33-1.46-.57-.32-1.23-.48-1.97-.48-.82,0-1.55.18-2.19.55-.64.37-1.14.89-1.5,1.58-.36.69-.54,1.49-.54,2.4s.18,1.71.54,2.4c.36.69.86,1.22,1.5,1.59.64.37,1.37.56,2.19.56.75,0,1.4-.16,1.97-.48.57-.32,1.01-.8,1.33-1.46h2.43c-.46,1.18-1.21,2.1-2.23,2.74-1.02.64-2.19.96-3.51.96-1.16,0-2.22-.27-3.18-.81s-1.72-1.29-2.28-2.25c-.56-.96-.84-2.04-.84-3.25s.28-2.29.84-3.25Z"/>
        <path class="cls-2" d="m189.62,47.35h-7.48c.06.78.35,1.41.87,1.88.52.47,1.16.71,1.92.71,1.09,0,1.86-.46,2.31-1.37h2.19c-.3.9-.83,1.64-1.61,2.21-.78.57-1.74.86-2.89.86-.94,0-1.77-.21-2.51-.63-.74-.42-1.32-1.01-1.74-1.78-.42-.76-.63-1.65-.63-2.66s.2-1.89.61-2.66c.41-.76.98-1.35,1.72-1.77.74-.41,1.59-.62,2.55-.62s1.75.2,2.47.6,1.29.97,1.69,1.7c.4.73.6,1.57.6,2.51,0,.37-.02.7-.07.99Zm-2.04-1.63c-.01-.75-.28-1.34-.8-1.79-.52-.45-1.17-.67-1.94-.67-.7,0-1.3.22-1.79.67s-.79,1.05-.89,1.8h5.42Z"/>
        <path class="cls-2" d="m198.33,42.02c.61.32,1.09.79,1.43,1.42.34.63.52,1.39.52,2.27v5.77h-2.01v-5.47c0-.88-.22-1.55-.66-2.02s-1.04-.7-1.79-.7-1.36.23-1.8.7-.67,1.14-.67,2.02v5.47h-2.03v-9.79h2.03v1.12c.33-.4.75-.72,1.27-.94.51-.22,1.06-.34,1.64-.34.77,0,1.46.16,2.07.48Z"/>
        <path class="cls-2" d="m204.86,43.36v5.42c0,.37.09.63.26.79.17.16.46.24.88.24h1.24v1.69h-1.6c-.91,0-1.61-.21-2.1-.64-.49-.43-.73-1.12-.73-2.08v-5.42h-1.15v-1.65h1.15v-2.43h2.04v2.43h2.38v1.65h-2.38Z"/>
        <path class="cls-2" d="m217.65,47.35h-7.48c.06.78.35,1.41.87,1.88.52.47,1.16.71,1.92.71,1.09,0,1.86-.46,2.31-1.37h2.19c-.3.9-.83,1.64-1.61,2.21-.78.57-1.74.86-2.89.86-.94,0-1.77-.21-2.51-.63-.74-.42-1.32-1.01-1.74-1.78-.42-.76-.63-1.65-.63-2.66s.2-1.89.61-2.66c.41-.76.98-1.35,1.72-1.77.74-.41,1.59-.62,2.55-.62s1.75.2,2.47.6,1.29.97,1.69,1.7c.4.73.6,1.57.6,2.51,0,.37-.02.7-.07.99Zm-2.04-1.63c-.01-.75-.28-1.34-.8-1.79-.52-.45-1.17-.67-1.94-.67-.7,0-1.3.22-1.79.67s-.79,1.05-.89,1.8h5.42Z"/>
        <path class="cls-2" d="m222.56,41.96c.49-.28,1.07-.42,1.75-.42v2.1h-.52c-.79,0-1.39.2-1.8.6s-.61,1.1-.61,2.1v5.15h-2.03v-9.79h2.03v1.42c.3-.5.69-.88,1.18-1.16Z"/>
        <path class="cls-2" d="m234.19,43.36h-1.81v8.14h-2.04v-8.14h-1.15v-1.65h1.15v-.69c0-1.12.3-1.95.9-2.46.6-.51,1.54-.77,2.82-.77v1.69c-.62,0-1.05.12-1.3.35s-.37.63-.37,1.2v.69h1.81v1.65Z"/>
        <path class="cls-2" d="m237.37,51.02c-.75-.42-1.33-1.01-1.76-1.78-.43-.76-.64-1.65-.64-2.66s.22-1.88.66-2.65,1.04-1.36,1.79-1.78c.76-.41,1.6-.62,2.54-.62s1.78.21,2.54.62c.76.41,1.36,1.01,1.79,1.78s.66,1.65.66,2.65-.22,1.88-.67,2.65c-.45.77-1.06,1.37-1.84,1.79-.78.42-1.63.63-2.57.63s-1.76-.21-2.51-.63Zm3.97-1.5c.46-.25.83-.62,1.11-1.12.28-.5.43-1.1.43-1.81s-.14-1.31-.41-1.8-.63-.86-1.08-1.11c-.45-.25-.94-.37-1.46-.37s-1,.12-1.45.37c-.44.25-.8.62-1.06,1.11s-.39,1.09-.39,1.8c0,1.05.27,1.87.81,2.44.54.57,1.22.86,2.03.86.52,0,1.01-.12,1.47-.37Z"/>
        <path class="cls-2" d="m249.81,41.96c.49-.28,1.07-.42,1.75-.42v2.1h-.52c-.79,0-1.39.2-1.8.6s-.61,1.1-.61,2.1v5.15h-2.03v-9.79h2.03v1.42c.3-.5.69-.88,1.18-1.16Z"/>
        <path class="cls-2" d="m264.83,39.9c.99.5,1.75,1.23,2.29,2.17.54.94.81,2.04.81,3.3s-.27,2.34-.81,3.27c-.54.92-1.3,1.63-2.29,2.12-.99.49-2.14.74-3.46.74h-4.03v-12.35h4.03c1.31,0,2.47.25,3.46.75Zm-.13,8.77c.77-.78,1.15-1.88,1.15-3.3s-.38-2.55-1.15-3.36c-.77-.8-1.88-1.21-3.32-1.21h-2.01v9.04h2.01c1.45,0,2.55-.39,3.32-1.17Z"/>
        <path class="cls-2" d="m269.68,40.03c-.25-.25-.37-.56-.37-.92s.12-.68.37-.92.56-.37.92-.37.66.12.91.37c.25.25.37.56.37.92s-.12.67-.37.92c-.25.25-.55.37-.91.37s-.67-.12-.92-.37Zm1.92,1.67v9.79h-2.03v-9.79h2.03Z"/>
        <path class="cls-2" d="m279.87,42c.59.3,1.04.68,1.38,1.13v-1.42h2.04v9.95c0,.9-.19,1.7-.57,2.41s-.93,1.26-1.64,1.66c-.72.4-1.57.6-2.57.6-1.33,0-2.43-.31-3.3-.93-.88-.62-1.37-1.47-1.49-2.53h2.01c.15.51.48.92.99,1.23.5.31,1.1.47,1.8.47.82,0,1.48-.25,1.98-.75s.75-1.22.75-2.17v-1.63c-.34.46-.81.85-1.39,1.16-.59.31-1.25.47-2,.47-.85,0-1.63-.22-2.34-.65-.7-.43-1.26-1.04-1.67-1.81-.41-.78-.61-1.65-.61-2.64s.2-1.85.61-2.61c.41-.76.96-1.35,1.67-1.77.7-.42,1.48-.63,2.34-.63.76,0,1.43.15,2.02.45Zm.96,2.83c-.28-.5-.64-.88-1.09-1.14-.45-.26-.94-.39-1.46-.39s-1.01.13-1.46.38c-.45.25-.81.63-1.09,1.12-.28.49-.42,1.07-.42,1.75s.14,1.27.42,1.78c.28.51.64.9,1.1,1.16.46.27.94.4,1.45.4s1.01-.13,1.46-.39c.45-.26.81-.64,1.09-1.15s.42-1.09.42-1.77-.14-1.26-.42-1.76Z"/>
        <path class="cls-2" d="m285.71,40.03c-.25-.25-.37-.56-.37-.92s.12-.68.37-.92.56-.37.92-.37.66.12.91.37c.25.25.37.56.37.92s-.12.67-.37.92c-.25.25-.55.37-.91.37s-.67-.12-.92-.37Zm1.92,1.67v9.79h-2.03v-9.79h2.03Z"/>
        <path class="cls-2" d="m292.3,43.36v5.42c0,.37.09.63.26.79.17.16.46.24.88.24h1.24v1.69h-1.6c-.91,0-1.61-.21-2.1-.64-.49-.43-.73-1.12-.73-2.08v-5.42h-1.15v-1.65h1.15v-2.43h2.04v2.43h2.38v1.65h-2.38Z"/>
        <path class="cls-2" d="m296.13,43.94c.41-.76.96-1.35,1.67-1.77.7-.42,1.48-.63,2.34-.63.77,0,1.44.15,2.02.45.57.3,1.03.68,1.38,1.13v-1.42h2.04v9.79h-2.04v-1.46c-.34.46-.81.85-1.4,1.15-.59.31-1.27.46-2.03.46-.84,0-1.61-.22-2.31-.65s-1.25-1.04-1.66-1.81c-.41-.78-.61-1.65-.61-2.64s.2-1.85.61-2.61Zm6.98.89c-.28-.5-.64-.88-1.09-1.14-.45-.26-.94-.39-1.46-.39s-1.01.13-1.46.38c-.45.25-.81.63-1.09,1.12-.28.49-.42,1.07-.42,1.75s.14,1.27.42,1.78c.28.51.64.9,1.1,1.16.46.27.94.4,1.45.4s1.01-.13,1.46-.39c.45-.26.81-.64,1.09-1.15s.42-1.09.42-1.77-.14-1.26-.42-1.76Z"/>
        <path class="cls-2" d="m309.91,38.35v13.15h-2.03v-13.15h2.03Z"/>
        <path class="cls-2" d="m326.34,39.15v12.35h-2.03v-5.4h-5.81v5.4h-2.03v-12.35h2.03v5.29h5.81v-5.29h2.03Z"/>
        <path class="cls-2" d="m337.51,41.7v9.79h-2.03v-1.15c-.32.4-.74.72-1.25.95s-1.06.35-1.64.35c-.77,0-1.46-.16-2.07-.48-.61-.32-1.09-.79-1.44-1.42-.35-.63-.52-1.39-.52-2.27v-5.76h2.01v5.45c0,.88.22,1.55.66,2.02.44.47,1.04.7,1.79.7s1.36-.23,1.8-.7c.44-.47.67-1.14.67-2.02v-5.45h2.03Z"/>
        <path class="cls-2" d="m353.74,42.02c.61.32,1.09.79,1.44,1.42.35.63.52,1.39.52,2.27v5.77h-2.01v-5.47c0-.88-.22-1.55-.66-2.02-.44-.47-1.04-.7-1.79-.7s-1.36.23-1.8.7-.67,1.14-.67,2.02v5.47h-2.01v-5.47c0-.88-.22-1.55-.66-2.02s-1.04-.7-1.79-.7-1.36.23-1.8.7-.67,1.14-.67,2.02v5.47h-2.03v-9.79h2.03v1.12c.33-.4.75-.72,1.26-.94.51-.22,1.05-.34,1.63-.34.78,0,1.48.17,2.1.5s1.09.81,1.42,1.44c.3-.59.76-1.06,1.39-1.41s1.3-.52,2.03-.52c.77,0,1.46.16,2.07.48Z"/>
        <path class="cls-2" d="m357.86,43.94c.41-.76.96-1.35,1.67-1.77.7-.42,1.48-.63,2.34-.63.77,0,1.44.15,2.02.45.57.3,1.03.68,1.38,1.13v-1.42h2.04v9.79h-2.04v-1.46c-.34.46-.81.85-1.4,1.15-.59.31-1.27.46-2.03.46-.84,0-1.61-.22-2.31-.65s-1.25-1.04-1.66-1.81c-.41-.78-.61-1.65-.61-2.64s.2-1.85.61-2.61Zm6.98.89c-.28-.5-.64-.88-1.09-1.14-.45-.26-.94-.39-1.46-.39s-1.01.13-1.46.38c-.45.25-.81.63-1.09,1.12-.28.49-.42,1.07-.42,1.75s.14,1.27.42,1.78c.28.51.64.9,1.1,1.16.46.27.94.4,1.45.4s1.01-.13,1.46-.39c.45-.26.81-.64,1.09-1.15s.42-1.09.42-1.77-.14-1.26-.42-1.76Z"/>
        <path class="cls-2" d="m376.62,42.02c.61.32,1.09.79,1.43,1.42.34.63.51,1.39.51,2.27v5.77h-2.01v-5.47c0-.88-.22-1.55-.66-2.02s-1.04-.7-1.79-.7-1.36.23-1.8.7-.67,1.14-.67,2.02v5.47h-2.03v-9.79h2.03v1.12c.33-.4.75-.72,1.27-.94.52-.22,1.06-.34,1.64-.34.77,0,1.46.16,2.07.48Z"/>
        <path class="cls-2" d="m380.9,40.03c-.25-.25-.37-.56-.37-.92s.12-.68.37-.92.56-.37.92-.37.66.12.91.37c.25.25.37.56.37.92s-.12.67-.37.92c-.25.25-.55.37-.91.37s-.67-.12-.92-.37Zm1.92,1.67v9.79h-2.03v-9.79h2.03Z"/>
        <path class="cls-2" d="m387.49,43.36v5.42c0,.37.09.63.26.79.17.16.46.24.88.24h1.24v1.69h-1.6c-.91,0-1.61-.21-2.1-.64-.49-.43-.73-1.12-.73-2.08v-5.42h-1.15v-1.65h1.15v-2.43h2.04v2.43h2.38v1.65h-2.38Z"/>
        <path class="cls-2" d="m391.48,40.03c-.25-.25-.37-.56-.37-.92s.12-.68.37-.92.56-.37.92-.37.66.12.91.37c.25.25.37.56.37.92s-.12.67-.37.92c-.25.25-.55.37-.91.37s-.67-.12-.92-.37Zm1.92,1.67v9.79h-2.03v-9.79h2.03Z"/>
        <path class="cls-2" d="m404.61,47.35h-7.48c.06.78.35,1.41.87,1.88.52.47,1.16.71,1.92.71,1.09,0,1.86-.46,2.31-1.37h2.19c-.3.9-.83,1.64-1.61,2.21-.78.57-1.74.86-2.89.86-.94,0-1.77-.21-2.51-.63-.74-.42-1.32-1.01-1.74-1.78-.42-.76-.63-1.65-.63-2.66s.2-1.89.61-2.66c.41-.76.98-1.35,1.72-1.77.74-.41,1.59-.62,2.55-.62s1.75.2,2.47.6,1.28.97,1.69,1.7c.4.73.6,1.57.6,2.51,0,.37-.02.7-.07.99Zm-2.04-1.63c-.01-.75-.28-1.34-.8-1.79-.52-.45-1.17-.67-1.94-.67-.7,0-1.3.22-1.79.67s-.79,1.05-.89,1.8h5.42Z"/>
        <path class="cls-2" d="m407.8,51.23c-.61-.28-1.09-.66-1.45-1.14-.36-.48-.54-1.01-.57-1.61h2.1c.04.41.23.76.6,1.04.36.28.81.42,1.36.42s1.01-.11,1.32-.33c.31-.22.47-.5.47-.84,0-.37-.17-.64-.52-.82s-.9-.37-1.66-.59c-.73-.2-1.33-.4-1.79-.59-.46-.19-.86-.48-1.2-.87s-.51-.91-.51-1.55c0-.52.15-1,.46-1.43.31-.43.75-.77,1.32-1.02.57-.25,1.23-.37,1.98-.37,1.11,0,2.01.28,2.69.84.68.56,1.04,1.33,1.09,2.3h-2.03c-.03-.44-.21-.79-.53-1.05s-.75-.39-1.3-.39-.94.1-1.23.3c-.28.2-.43.47-.43.8,0,.26.09.48.28.66.19.18.42.32.69.42s.67.23,1.21.38c.71.19,1.29.38,1.75.58s.85.48,1.18.86.5.88.51,1.51c0,.56-.15,1.05-.46,1.49-.31.44-.74.78-1.31,1.03-.56.25-1.22.37-1.98.37s-1.46-.14-2.07-.42Z"/>
        <path class="cls-2" d="m421.45,51.02c-.75-.42-1.33-1.01-1.76-1.78s-.64-1.65-.64-2.66.22-1.88.66-2.65,1.04-1.36,1.79-1.78c.76-.41,1.6-.62,2.54-.62s1.78.21,2.54.62c.76.41,1.36,1.01,1.79,1.78s.66,1.65.66,2.65-.22,1.88-.67,2.65-1.06,1.37-1.84,1.79c-.78.42-1.63.63-2.57.63s-1.76-.21-2.5-.63Zm3.97-1.5c.46-.25.83-.62,1.11-1.12s.43-1.1.43-1.81-.14-1.31-.41-1.8-.63-.86-1.08-1.11c-.45-.25-.94-.37-1.46-.37s-1,.12-1.45.37c-.44.25-.8.62-1.06,1.11-.26.49-.39,1.09-.39,1.8,0,1.05.27,1.87.81,2.44.54.57,1.22.86,2.03.86.52,0,1.01-.12,1.47-.37Z"/>
        <path class="cls-2" d="m434.8,43.36h-1.81v8.14h-2.04v-8.14h-1.15v-1.65h1.15v-.69c0-1.12.3-1.95.9-2.46s1.54-.77,2.82-.77v1.69c-.62,0-1.05.12-1.3.35-.25.23-.37.63-.37,1.2v.69h1.81v1.65Z"/>
        <path class="cls-2" d="m448.69,44.6c-.3.56-.77,1.01-1.42,1.36-.65.35-1.49.52-2.51.52h-2.24v5.01h-2.03v-12.35h4.26c.95,0,1.75.16,2.41.49.66.33,1.15.77,1.47,1.32s.49,1.18.49,1.87c0,.63-.15,1.22-.44,1.78Zm-2.2-.29c.38-.35.57-.84.57-1.48,0-1.35-.76-2.03-2.29-2.03h-2.24v4.03h2.24c.77,0,1.34-.17,1.72-.52Z"/>
        <path class="cls-2" d="m457.52,51.49l-4.78-5.53v5.53h-2.03v-12.35h2.03v5.63l4.8-5.63h2.54l-5.37,6.18,5.45,6.16h-2.65Z"/>
        <path class="cls-2" d="m463.61,39.15v7.87c0,.94.24,1.64.74,2.11.49.47,1.18.71,2.05.71s1.58-.24,2.07-.71c.49-.47.74-1.18.74-2.11v-7.87h2.03v7.83c0,1.01-.22,1.86-.66,2.56-.44.7-1.02,1.22-1.76,1.56-.73.34-1.55.51-2.43.51s-1.7-.17-2.43-.51-1.31-.86-1.73-1.56c-.43-.7-.64-1.55-.64-2.56v-7.83h2.03Z"/>
      </g>
      <g>
        <path class="cls-2" d="m89.92,1.71h3.76v27.47h-3.76v-6.25c-2.34,1.03-4.67,2-6.65,2.82l-1.58-3.67c2.06-.64,5.13-1.7,8.23-2.82v-7.29h-7.19v-3.61h7.19V1.71Zm15.66,23.62c1.18,0,1.37-1.18,1.58-6.1.88.7,2.46,1.43,3.46,1.67-.36,5.8-1.27,7.98-4.67,7.98h-3.98c-3.46,0-4.46-1.21-4.46-5.46V1.71h3.73v9.14c2.31-1.49,4.55-3.19,6.22-4.61l2.7,3.16c-2.67,1.88-5.89,3.7-8.92,5.28v8.77c0,1.7.15,1.88,1.27,1.88h3.07Z"/>
        <path class="cls-2" d="m123.73,21.93c-1.67,2.43-4.01,5.13-6.04,6.89-.67-.7-1.88-1.7-2.64-2.28,1.88-1.55,4.04-4.01,5.13-5.92l3.55,1.31Zm18.58-17.36v3.55h-26.74v-3.55h11.75c-.42-.88-.91-1.79-1.31-2.58l3.55-1.12c.67,1.12,1.52,2.58,2.06,3.7h10.68Zm-11.32,14.57v6.65c0,1.82-.33,2.76-1.73,3.28-1.31.52-3.13.55-5.55.55-.15-1.06-.67-2.52-1.15-3.49,1.55.06,3.46.03,3.95.03.52,0,.67-.09.67-.49v-6.53h-8.13v-9.5h20.06v9.5h-8.11Zm-8.35-3.1h12.63v-3.28h-12.63v3.28Zm14.33,4.49c1.76,1.91,4.16,4.49,5.31,6.22l-3.19,2.13c-1.03-1.73-3.31-4.49-5.13-6.5l3-1.85Z"/>
        <path class="cls-2" d="m164.53,13.04c2,5.92,5.68,10.68,11.35,12.99-.91.76-2.09,2.37-2.67,3.4-5.49-2.58-9.02-7.01-11.38-12.87-1.64,5.07-4.92,9.8-11.35,12.9-.58-1-1.64-2.31-2.7-3.07,6.95-3.1,9.83-8.14,11.02-13.36h-10.44v-3.73h11.05c.3-2.85.27-5.62.3-8.11h3.95c-.03,2.49-.06,5.28-.36,8.11h11.93v3.73h-10.68Z"/>
        <path class="cls-2" d="m208.09,21.59h-11.78v3.89c0,1.88-.46,2.79-1.88,3.31-1.43.55-3.34.58-5.92.58-.24-1.03-.94-2.55-1.49-3.49,1.94.09,4.19.09,4.8.06.64,0,.79-.15.79-.55v-3.79h-11.56v-3.34h11.56v-1.88c1.15-.46,2.34-1.09,3.43-1.76h-9.56v-3.13h13.69l.73-.18,2.31,1.79c-1.85,1.7-4.31,3.34-6.89,4.58v.58h11.78v3.34Zm-23.25-8.99h-3.4v-6.65h4.64c-.55-1.03-1.4-2.22-2.13-3.16l3.07-1.37c1.06,1.18,2.28,2.82,2.79,3.98l-1.15.55h5.1c-.43-1.21-1.21-2.7-1.97-3.89l3.19-1.18c1,1.31,2,3.16,2.4,4.37l-1.79.7h3.95c.97-1.43,2-3.22,2.61-4.58l3.76,1.12c-.82,1.18-1.73,2.37-2.58,3.46h4.43v6.65h-3.55v-3.46h-19.37v3.46Z"/>
        <path class="cls-2" d="m219.26,12.06c-1.4,1.4-3.01,2.67-4.52,3.49-.39-.79-1.18-1.97-1.85-2.64,1.79-.73,3.7-2.06,5.13-3.55h-4.49v-2.85h2.37c-.24-1.03-.94-2.58-1.61-3.76l2.55-1.06c.82,1.12,1.58,2.7,1.82,3.73l-2.46,1.09h3.07V1.17h3.34v5.34h5.74v2.85h-4.43c1.37.79,3.07,1.79,3.58,2.16l-1.88,2.52c-.67-.64-1.85-1.64-3-2.55v3.31h-3.34v-2.73Zm4.89,15.54c-.61-.46-1.4-1-2.31-1.55-2.03,1.55-4.46,2.64-7.19,3.4-.33-.82-1.03-2.09-1.64-2.7,2.19-.49,4.22-1.27,5.95-2.34-1.43-.76-2.94-1.46-4.31-2.03.55-.79,1.12-1.73,1.73-2.76h-2.31v-2.91h3.79c.27-.61.52-1.18.73-1.76l3.19.58c-.15.39-.33.79-.52,1.18h3.85l.55-.09,1.94.73c-.73,2.67-1.94,4.86-3.49,6.62.82.46,1.55.91,2.16,1.34l-2.12,2.31Zm-4.28-7.98c-.3.58-.61,1.12-.91,1.61.82.39,1.67.82,2.46,1.24.85-.85,1.58-1.79,2.12-2.85h-3.67Zm8.2-16.88c-1,1.37-1.94,2.73-2.73,3.67l-2.31-1.03c.7-1.06,1.52-2.7,2-3.82l3.04,1.18Zm11.17,7.35c-.58,4.25-1.49,7.8-2.91,10.78,1.4,2.4,3.25,4.31,5.52,5.56-.79.64-1.85,1.94-2.34,2.85-2.09-1.31-3.76-3.04-5.13-5.16-1.73,2.31-3.92,4.13-6.74,5.56-.33-.73-1.28-2.25-1.91-2.94,3.07-1.37,5.31-3.28,6.86-5.8-.88-1.91-1.55-4.04-2.15-6.34-.49.97-1.03,1.88-1.61,2.7-.49-.61-1.85-1.79-2.58-2.31,2.43-3.16,3.76-8.29,4.46-13.72l3.28.49c-.24,1.7-.55,3.4-.91,5.01h8.07v3.34h-1.91Zm-6.68,0c.46,2.43,1.06,4.77,1.85,6.92.7-2.06,1.18-4.34,1.49-6.92h-3.34Z"/>
        <path class="cls-2" d="m273.32,20.81h-11.32v4.58c0,1.94-.46,2.91-1.94,3.46-1.46.58-3.4.61-5.89.61-.24-1.09-.94-2.7-1.58-3.67,1.88.06,4.16.06,4.77.06s.79-.12.79-.55v-4.49h-11.26v-3.43h11.26v-1.61c1.28-.64,2.55-1.55,3.7-2.49h-9.77v-3.37h13.42l.82-.18,2.4,1.88c-1.76,1.85-4.16,3.79-6.71,5.25v.52h11.32v3.43Zm-22.73-9.8h-3.55v-6.95h11.35c-.36-.7-.76-1.43-1.18-2l3.61-1.09c.73.91,1.46,2.13,1.85,3.1h10.44v6.95h-3.73v-3.55h-18.79v3.55Z"/>
        <path class="cls-2" d="m294.66,1.2c-.03,1.28-.09,2.91-.21,4.74.42,4.1,2.28,15.54,12.87,20.22-1.12.88-2.15,2.09-2.64,3.13-6.74-3.22-10.11-9.14-11.87-14.36-1.67,5.34-4.86,10.84-11.17,14.54-.64-.97-1.79-2.12-3-2.94,12.32-6.59,11.75-20.19,11.87-25.32h4.16Z"/>
        <path class="cls-2" d="m334.88,9.79c-1.55,4.37-3.61,7.92-6.25,10.87,3.13,2.43,6.95,4.19,11.47,5.25-.82.79-1.88,2.37-2.43,3.37-4.76-1.28-8.68-3.28-11.87-5.95-3.34,2.73-7.41,4.74-12.29,6.13-.4-.85-1.46-2.55-2.19-3.37,4.73-1.18,8.65-2.91,11.81-5.37-2.73-3-4.83-6.65-6.47-10.93h-4.77v-3.52h12.81c-.33-1.24-1-2.94-1.7-4.28l3.86-1.12c.79,1.4,1.7,3.34,2.06,4.58l-2.61.82h13.2v3.52h-4.64Zm-14.48,0c1.31,3.19,3.13,6.01,5.46,8.41,2.1-2.31,3.76-5.07,4.95-8.41h-10.41Z"/>
        <path class="cls-2" d="m351.21,5.87c-.39,2.03-.94,4.1-1.61,6.04h5.68v13.96h-5.8v2.22h-3v-9.44c-.4.58-.82,1.15-1.24,1.67-.12-.97-.73-3.28-1.21-4.31,1.85-2.49,3.1-6.16,3.86-10.14h-3.22v-3.28h11.02v3.28h-4.46Zm1,9.23h-2.73v7.59h2.73v-7.59Zm20.4,1.82h-3.19v12.63h-3.43v-12.63h-3.46c-.18,4.46-1.06,9.53-4.19,12.84-.61-.64-1.91-1.64-2.73-2.09,2.61-2.82,3.37-7.04,3.55-10.75h-2.82v-3.4h2.88v-7.5h-2.09v-3.34h14.87v3.34h-2.58v7.5h3.19v3.4Zm-6.62-3.4v-7.5h-3.4v7.5h3.4Z"/>
        <path class="cls-2" d="m401.33,25.6c.64,0,.76-.58.85-4.34.79.64,2.34,1.25,3.34,1.52-.33,4.92-1.24,6.25-3.82,6.25h-2.7c-2.88,0-3.79-1.03-3.79-4.55v-5.49h-4.43c-.39,3.98-2.58,8.17-10.93,10.47-.58-.94-1.67-2.22-2.55-3.01,7.07-1.91,9.17-4.77,9.68-7.47h-7.16v-3.34h7.32v-2.61h3.73v2.61h8.07v8.8c0,1,.09,1.15.73,1.15h1.67Zm-19.64-15.45h-3.64v-5.98h11.23c-.3-.82-.61-1.64-.94-2.37l3.86-.94c.55,1.03,1.15,2.31,1.52,3.31h10.72v5.68h-3.82v-2.55h-18.91v2.85Zm-2.97,1.91c2.7-.85,6.19-2.43,8.68-4.25l2.85,1.67c-2.64,2.09-6.25,4.1-9.23,5.16l-2.31-2.58Zm16.24-4.31c2.82,1.24,6.74,3.28,8.77,4.77l-2.64,2.16c-1.79-1.46-5.62-3.61-8.56-5.01l2.43-1.91Z"/>
        <path class="cls-2" d="m436.51,6.42v15.15h-3.79v-1.52h-6.86v9.47h-3.83v-9.47h-6.83v1.67h-3.64V6.42h10.47V1.17h3.83v5.25h10.65Zm-14.48,10.08v-6.53h-6.83v6.53h6.83Zm10.68,0v-6.53h-6.86v6.53h6.86Z"/>
        <path class="cls-2" d="m448.65,12.28c-.43,3.92-1.18,9.17-2.22,12.6l-3.64-1.46c1.06-3.22,1.94-7.77,2.34-11.81l3.52.67Zm5.71-2.46v14.08c0,1.43.24,1.67,1.7,1.67h4.34c1.52,0,1.79-.97,2-5.71.85.64,2.4,1.27,3.4,1.52-.43,5.77-1.4,7.56-5.13,7.56h-5.04c-3.95,0-5.04-1.21-5.04-5.04v-14.08h3.76Zm-.27-8.17c2.73,1.73,6.59,4.4,8.41,6.28l-2.67,2.82c-1.64-1.85-5.37-4.74-8.19-6.65l2.46-2.46Zm13.23,8.99c1.7,3.61,3.28,8.17,3.92,11.29l-3.67,1.52c-.46-3.1-2.03-7.89-3.61-11.44l3.37-1.37Z"/>
      </g>
    </g>
    <g>
      <rect class="cls-2" y="0" width="13.33" height="53.33"/>
      <path class="cls-1" d="m16,13.33c7.36,0,13.33,5.97,13.33,13.33s-5.97,13.33-13.33,13.33v13.33c14.73,0,26.66-11.94,26.66-26.66S30.73,0,16,0v13.33Z"/>
      <path class="cls-2" d="m51.95,0v20h-7.46c.5,2.14.76,4.37.76,6.67s-.26,4.52-.76,6.67h7.46v20h13.33V0h-13.33Z"/>
    </g>
  </g>
</svg>