<?xml version="1.0" encoding="UTF-8"?>
<svg id="_图层_2" data-name="图层 2" xmlns="http://www.w3.org/2000/svg" viewBox="0 0 320.63 93.29">
  <defs>
    <style>
      .cls-1 {
        fill: #fff;
      }
    </style>
  </defs>
  <g id="_图层_1-2" data-name="图层 1">
    <g>
      <g>
        <rect class="cls-1" y="1.92" width="22.84" height="91.37"/>
        <path class="cls-1" d="m27.42,24.76c12.62,0,22.84,10.23,22.84,22.84s-10.23,22.84-22.84,22.84v22.84c25.23,0,45.69-20.45,45.69-45.69S52.65,1.92,27.42,1.92v22.84Z"/>
        <path class="cls-1" d="m89.01,1.92v34.27h-12.78c.85,3.67,1.3,7.49,1.3,11.42s-.45,7.75-1.3,11.42h12.78v34.27h22.84V1.92h-22.84Z"/>
      </g>
      <g>
        <g>
          <path class="cls-1" d="m133.96,15.62l-3.24-5.62h-1.76v5.62h-2.31V1.56h4.85c1.08,0,1.99.19,2.74.57.75.38,1.31.88,1.68,1.52.37.63.56,1.34.56,2.12,0,.92-.27,1.75-.8,2.5-.53.75-1.35,1.26-2.46,1.53l3.48,5.83h-2.75Zm-5-7.46h2.55c.86,0,1.51-.22,1.95-.65.44-.43.66-1.01.66-1.74s-.22-1.3-.65-1.71c-.43-.41-1.09-.62-1.96-.62h-2.55v4.71Z"/>
          <path class="cls-1" d="m148.77,10.9h-8.52c.07.89.4,1.61.99,2.14.59.54,1.32.81,2.18.81,1.24,0,2.12-.52,2.63-1.56h2.49c-.34,1.02-.95,1.86-1.83,2.52-.88.65-1.98.98-3.29.98-1.07,0-2.02-.24-2.86-.72-.84-.48-1.5-1.15-1.98-2.02-.48-.87-.72-1.88-.72-3.02s.23-2.15.7-3.02c.47-.87,1.12-1.54,1.96-2.01.84-.47,1.81-.71,2.9-.71s1.99.23,2.81.69c.82.46,1.46,1.1,1.92,1.93s.69,1.78.69,2.86c0,.42-.03.8-.08,1.13Zm-2.33-1.86c-.01-.85-.32-1.53-.91-2.04-.59-.51-1.33-.77-2.21-.77-.8,0-1.48.25-2.04.76-.57.51-.9,1.19-1.01,2.05h6.17Z"/>
          <path class="cls-1" d="m152,15.32c-.69-.32-1.24-.75-1.65-1.29-.4-.55-.62-1.16-.65-1.83h2.39c.04.47.27.87.68,1.18s.93.48,1.55.48,1.15-.12,1.51-.37c.36-.25.54-.57.54-.96,0-.42-.2-.73-.6-.93-.4-.2-1.03-.42-1.89-.67-.84-.23-1.52-.45-2.04-.67-.53-.22-.98-.55-1.37-.99-.38-.45-.58-1.03-.58-1.76,0-.59.17-1.14.53-1.63.35-.49.85-.88,1.51-1.16.65-.28,1.41-.42,2.26-.42,1.27,0,2.29.32,3.06.96.78.64,1.19,1.51,1.24,2.62h-2.31c-.04-.5-.24-.9-.61-1.19-.36-.3-.86-.44-1.48-.44s-1.07.11-1.4.34c-.32.23-.49.53-.49.91,0,.3.11.55.32.75.22.2.48.36.79.48.31.11.77.26,1.38.44.81.22,1.47.43,1.99.66.52.22.97.55,1.34.98.38.43.57,1,.59,1.72,0,.63-.18,1.2-.53,1.7-.35.5-.85.89-1.49,1.17s-1.39.42-2.26.42-1.66-.16-2.36-.48Z"/>
          <path class="cls-1" d="m170.43,10.9h-8.52c.07.89.4,1.61.99,2.14.59.54,1.32.81,2.18.81,1.24,0,2.12-.52,2.63-1.56h2.49c-.34,1.02-.95,1.86-1.83,2.52-.88.65-1.98.98-3.29.98-1.07,0-2.02-.24-2.86-.72-.84-.48-1.5-1.15-1.98-2.02-.48-.87-.72-1.88-.72-3.02s.23-2.15.7-3.02c.47-.87,1.12-1.54,1.96-2.01.84-.47,1.81-.71,2.9-.71s1.99.23,2.81.69c.82.46,1.46,1.1,1.92,1.93s.69,1.78.69,2.86c0,.42-.03.8-.08,1.13Zm-2.33-1.86c-.01-.85-.32-1.53-.91-2.04-.59-.51-1.33-.77-2.21-.77-.8,0-1.48.25-2.04.76-.57.51-.9,1.19-1.01,2.05h6.17Z"/>
          <path class="cls-1" d="m171.9,7.02c.47-.86,1.1-1.53,1.9-2.01.8-.48,1.69-.72,2.66-.72.88,0,1.64.17,2.3.52.65.34,1.18.77,1.57,1.28v-1.62h2.33v11.15h-2.33v-1.66c-.39.53-.92.96-1.6,1.31-.67.35-1.44.53-2.31.53-.96,0-1.83-.25-2.63-.74-.8-.49-1.43-1.18-1.89-2.06-.47-.88-.7-1.88-.7-3s.23-2.11.7-2.97Zm7.95,1.01c-.32-.57-.73-1-1.24-1.29-.51-.3-1.07-.45-1.66-.45s-1.15.15-1.66.44c-.51.29-.93.71-1.24,1.27-.32.56-.48,1.22-.48,1.99s.16,1.44.48,2.02c.32.58.74,1.02,1.25,1.32.52.3,1.07.46,1.65.46s1.15-.15,1.66-.45c.51-.3.93-.73,1.24-1.3.32-.57.48-1.24.48-2.01s-.16-1.44-.48-2Z"/>
          <path class="cls-1" d="m188.53,4.76c.56-.32,1.22-.48,1.99-.48v2.39h-.59c-.9,0-1.59.23-2.05.69-.47.46-.7,1.25-.7,2.39v5.87h-2.31V4.47h2.31v1.62c.34-.57.79-1.01,1.35-1.32Z"/>
          <path class="cls-1" d="m191.76,7.01c.47-.87,1.11-1.54,1.93-2.01.82-.47,1.77-.71,2.83-.71,1.35,0,2.46.32,3.35.96.88.64,1.48,1.55,1.79,2.74h-2.49c-.2-.55-.53-.98-.97-1.29-.45-.31-1-.47-1.68-.47-.94,0-1.7.33-2.26,1-.56.67-.84,1.6-.84,2.8s.28,2.14.84,2.81c.56.67,1.31,1.01,2.26,1.01,1.34,0,2.22-.59,2.65-1.76h2.49c-.32,1.13-.93,2.03-1.82,2.7-.89.67-2,1-3.32,1-1.07,0-2.01-.24-2.83-.72-.82-.48-1.47-1.15-1.93-2.02-.47-.87-.7-1.88-.7-3.02s.23-2.15.7-3.02Z"/>
          <path class="cls-1" d="m211.2,4.83c.67.36,1.19.9,1.58,1.62.38.71.58,1.58.58,2.59v6.57h-2.29v-6.23c0-1-.25-1.76-.75-2.3-.5-.53-1.18-.8-2.04-.8s-1.55.27-2.05.8c-.51.53-.76,1.3-.76,2.3v6.23h-2.31V.65h2.31v5.12c.39-.47.89-.84,1.49-1.09.6-.26,1.26-.38,1.97-.38.85,0,1.61.18,2.28.55Z"/>
          <path class="cls-1" d="m220.12,4.85c.64-1.09,1.51-1.94,2.61-2.56,1.1-.61,2.3-.92,3.61-.92,1.5,0,2.83.37,4,1.1,1.17.74,2.01,1.78,2.54,3.13h-2.77c-.36-.74-.87-1.29-1.52-1.66-.65-.36-1.4-.55-2.25-.55-.93,0-1.76.21-2.49.63-.73.42-1.3,1.02-1.71,1.8-.41.78-.62,1.69-.62,2.73s.21,1.95.62,2.73c.41.78.98,1.39,1.71,1.81.73.42,1.56.64,2.49.64.85,0,1.6-.18,2.25-.55s1.15-.92,1.52-1.66h2.77c-.53,1.35-1.37,2.39-2.54,3.12-1.17.73-2.5,1.09-4,1.09-1.32,0-2.53-.31-3.62-.92-1.09-.61-1.96-1.47-2.6-2.56-.64-1.09-.96-2.33-.96-3.7s.32-2.61.96-3.7Z"/>
          <path class="cls-1" d="m244.89,10.9h-8.52c.07.89.4,1.61.99,2.14.59.54,1.32.81,2.18.81,1.24,0,2.12-.52,2.63-1.56h2.49c-.34,1.02-.95,1.86-1.83,2.52-.88.65-1.98.98-3.29.98-1.07,0-2.02-.24-2.86-.72-.84-.48-1.5-1.15-1.98-2.02-.48-.87-.72-1.88-.72-3.02s.23-2.15.7-3.02c.47-.87,1.12-1.54,1.96-2.01.84-.47,1.81-.71,2.9-.71s1.99.23,2.81.69c.82.46,1.46,1.1,1.92,1.93s.69,1.78.69,2.86c0,.42-.03.8-.08,1.13Zm-2.33-1.86c-.01-.85-.32-1.53-.91-2.04-.59-.51-1.33-.77-2.21-.77-.8,0-1.48.25-2.04.76-.57.51-.9,1.19-1.01,2.05h6.17Z"/>
          <path class="cls-1" d="m254.41,4.83c.69.36,1.24.9,1.63,1.62.39.71.59,1.58.59,2.59v6.57h-2.29v-6.23c0-1-.25-1.76-.75-2.3-.5-.53-1.18-.8-2.04-.8s-1.55.27-2.05.8c-.51.53-.76,1.3-.76,2.3v6.23h-2.31V4.47h2.31v1.27c.38-.46.86-.82,1.45-1.07.59-.26,1.21-.38,1.87-.38.88,0,1.66.18,2.36.55Z"/>
          <path class="cls-1" d="m261.44,6.35v6.17c0,.42.1.72.29.9.2.18.53.27,1,.27h1.42v1.92h-1.82c-1.04,0-1.83-.24-2.39-.73-.55-.49-.83-1.27-.83-2.37v-6.17h-1.31v-1.88h1.31V1.7h2.33v2.77h2.71v1.88h-2.71Z"/>
          <path class="cls-1" d="m275.6,10.9h-8.52c.07.89.4,1.61.99,2.14.59.54,1.32.81,2.18.81,1.24,0,2.12-.52,2.63-1.56h2.49c-.34,1.02-.95,1.86-1.83,2.52-.88.65-1.98.98-3.29.98-1.07,0-2.02-.24-2.86-.72-.84-.48-1.5-1.15-1.98-2.02-.48-.87-.72-1.88-.72-3.02s.23-2.15.7-3.02c.47-.87,1.12-1.54,1.96-2.01.84-.47,1.81-.71,2.9-.71s1.99.23,2.81.69c.82.46,1.46,1.1,1.92,1.93s.69,1.78.69,2.86c0,.42-.03.8-.08,1.13Zm-2.33-1.86c-.01-.85-.32-1.53-.91-2.04-.59-.51-1.33-.77-2.21-.77-.8,0-1.48.25-2.04.76-.57.51-.9,1.19-1.01,2.05h6.17Z"/>
          <path class="cls-1" d="m280.79,4.76c.56-.32,1.22-.48,1.99-.48v2.39h-.59c-.9,0-1.59.23-2.05.69-.47.46-.7,1.25-.7,2.39v5.87h-2.31V4.47h2.31v1.62c.34-.57.79-1.01,1.35-1.32Z"/>
          <path class="cls-1" d="m293.22,6.35h-2.06v9.26h-2.33V6.35h-1.31v-1.88h1.31v-.79c0-1.28.34-2.21,1.02-2.8.68-.59,1.75-.88,3.21-.88v1.92c-.7,0-1.19.13-1.48.39-.28.26-.42.72-.42,1.37v.79h2.06v1.88Z"/>
          <path class="cls-1" d="m296.43,15.08c-.85-.48-1.52-1.15-2-2.02-.49-.87-.73-1.88-.73-3.02s.25-2.14.75-3.01c.5-.88,1.18-1.55,2.04-2.02.86-.47,1.83-.71,2.89-.71s2.03.24,2.89.71c.86.47,1.54,1.15,2.04,2.02.5.88.75,1.88.75,3.01s-.26,2.14-.77,3.01c-.51.88-1.21,1.55-2.09,2.03-.88.48-1.86.72-2.92.72s-2-.24-2.85-.72Zm4.52-1.71c.52-.28.94-.71,1.26-1.27.32-.57.49-1.25.49-2.06s-.16-1.49-.47-2.05c-.31-.56-.72-.98-1.23-1.26-.51-.28-1.07-.42-1.66-.42s-1.14.14-1.65.42c-.51.28-.91.71-1.2,1.26-.3.56-.45,1.24-.45,2.05,0,1.2.31,2.13.92,2.78.61.65,1.39.98,2.32.98.59,0,1.15-.14,1.67-.42Z"/>
          <path class="cls-1" d="m310.2,4.76c.56-.32,1.22-.48,1.99-.48v2.39h-.59c-.9,0-1.59.23-2.05.69-.47.46-.7,1.25-.7,2.39v5.87h-2.31V4.47h2.31v1.62c.34-.57.79-1.01,1.35-1.32Z"/>
          <path class="cls-1" d="m135.19,27.87c1.13.57,2,1.4,2.61,2.47.61,1.07.92,2.32.92,3.75s-.31,2.67-.92,3.72c-.61,1.05-1.48,1.86-2.61,2.42-1.13.56-2.44.84-3.93.84h-4.59v-14.06h4.59c1.5,0,2.81.29,3.93.86Zm-.15,9.98c.88-.89,1.32-2.14,1.32-3.76s-.44-2.91-1.32-3.82c-.88-.92-2.14-1.38-3.78-1.38h-2.29v10.3h2.29c1.65,0,2.91-.45,3.78-1.34Z"/>
          <path class="cls-1" d="m140.31,28.03c-.28-.28-.42-.63-.42-1.05s.14-.77.42-1.05c.28-.28.63-.42,1.05-.42s.75.14,1.03.42c.28.28.42.63.42,1.05s-.14.77-.42,1.05c-.28.28-.63.42-1.03.42s-.77-.14-1.05-.42Zm2.18,1.9v11.15h-2.31v-11.15h2.31Z"/>
          <path class="cls-1" d="m151.51,30.26c.67.34,1.19.77,1.57,1.28v-1.62h2.33v11.33c0,1.02-.22,1.94-.65,2.74-.43.8-1.06,1.43-1.87,1.89-.82.46-1.79.69-2.92.69-1.51,0-2.76-.35-3.76-1.06-1-.71-1.56-1.67-1.7-2.88h2.29c.17.58.55,1.05,1.12,1.41.57.36,1.26.54,2.05.54.93,0,1.68-.28,2.26-.85s.86-1.39.86-2.47v-1.86c-.39.53-.92.97-1.59,1.33-.67.36-1.43.54-2.28.54-.97,0-1.86-.25-2.66-.74-.8-.49-1.44-1.18-1.9-2.06-.47-.88-.7-1.88-.7-3s.23-2.11.7-2.97c.47-.86,1.1-1.53,1.9-2.01.8-.48,1.69-.72,2.66-.72.86,0,1.63.17,2.3.52Zm1.09,3.23c-.32-.57-.73-1-1.24-1.29-.51-.3-1.07-.45-1.66-.45s-1.15.15-1.66.44c-.51.29-.93.71-1.24,1.27-.32.56-.48,1.22-.48,1.99s.16,1.44.48,2.02c.32.58.74,1.02,1.25,1.32.52.3,1.07.46,1.65.46s1.15-.15,1.66-.45c.51-.3.93-.73,1.24-1.3.32-.57.48-1.24.48-2.01s-.16-1.44-.48-2Z"/>
          <path class="cls-1" d="m157.75,28.03c-.28-.28-.42-.63-.42-1.05s.14-.77.42-1.05c.28-.28.63-.42,1.05-.42s.75.14,1.03.42c.28.28.42.63.42,1.05s-.14.77-.42,1.05c-.28.28-.63.42-1.03.42s-.77-.14-1.05-.42Zm2.18,1.9v11.15h-2.31v-11.15h2.31Z"/>
          <path class="cls-1" d="m164.85,31.81v6.17c0,.42.1.72.29.9.2.18.53.27,1,.27h1.42v1.92h-1.82c-1.04,0-1.83-.24-2.39-.73-.55-.49-.83-1.27-.83-2.37v-6.17h-1.31v-1.88h1.31v-2.77h2.33v2.77h2.71v1.88h-2.71Z"/>
          <path class="cls-1" d="m168.81,32.48c.47-.86,1.1-1.53,1.9-2.01.8-.48,1.69-.72,2.66-.72.88,0,1.64.17,2.3.52.65.34,1.18.77,1.57,1.28v-1.62h2.33v11.15h-2.33v-1.66c-.39.53-.92.96-1.6,1.31-.67.35-1.44.53-2.31.53-.96,0-1.83-.25-2.63-.74-.8-.49-1.43-1.18-1.89-2.06-.47-.88-.7-1.88-.7-3s.23-2.11.7-2.97Zm7.95,1.01c-.32-.57-.73-1-1.24-1.29-.51-.3-1.07-.45-1.66-.45s-1.15.15-1.66.44c-.51.29-.93.71-1.24,1.27-.32.56-.48,1.22-.48,1.99s.16,1.44.48,2.02c.32.58.74,1.02,1.25,1.32.52.3,1.07.46,1.65.46s1.15-.15,1.66-.45c.51-.3.93-.73,1.24-1.3.32-.57.48-1.24.48-2.01s-.16-1.44-.48-2Z"/>
          <path class="cls-1" d="m184.09,26.1v14.97h-2.31v-14.97h2.31Z"/>
          <path class="cls-1" d="m201.99,27.01v14.06h-2.31v-6.15h-6.61v6.15h-2.31v-14.06h2.31v6.03h6.61v-6.03h2.31Z"/>
          <path class="cls-1" d="m214.31,29.93v11.15h-2.31v-1.31c-.36.46-.84.82-1.43,1.08s-1.21.39-1.87.39c-.88,0-1.66-.18-2.36-.55-.69-.36-1.24-.9-1.64-1.62-.4-.71-.6-1.58-.6-2.59v-6.55h2.29v6.21c0,1,.25,1.76.75,2.3.5.53,1.18.8,2.04.8s1.55-.27,2.05-.8c.51-.53.76-1.3.76-2.3v-6.21h2.31Z"/>
          <path class="cls-1" d="m232.38,30.29c.69.36,1.24.9,1.64,1.62.4.71.6,1.58.6,2.59v6.57h-2.29v-6.23c0-1-.25-1.76-.75-2.3-.5-.53-1.18-.8-2.04-.8s-1.55.27-2.05.8c-.51.53-.76,1.3-.76,2.3v6.23h-2.29v-6.23c0-1-.25-1.76-.75-2.3-.5-.53-1.18-.8-2.04-.8s-1.55.27-2.05.8c-.51.53-.76,1.3-.76,2.3v6.23h-2.31v-11.15h2.31v1.27c.38-.46.86-.82,1.44-1.07.58-.26,1.2-.38,1.86-.38.89,0,1.69.19,2.39.57.7.38,1.24.92,1.62,1.64.34-.67.86-1.21,1.58-1.61.71-.4,1.48-.6,2.31-.6.88,0,1.66.18,2.36.55Z"/>
          <path class="cls-1" d="m236.67,32.48c.47-.86,1.1-1.53,1.9-2.01.8-.48,1.69-.72,2.66-.72.88,0,1.64.17,2.3.52.65.34,1.18.77,1.57,1.28v-1.62h2.33v11.15h-2.33v-1.66c-.39.53-.92.96-1.6,1.31-.67.35-1.44.53-2.31.53-.96,0-1.83-.25-2.63-.74-.8-.49-1.43-1.18-1.89-2.06-.47-.88-.7-1.88-.7-3s.23-2.11.7-2.97Zm7.95,1.01c-.32-.57-.73-1-1.24-1.29-.51-.3-1.07-.45-1.66-.45s-1.15.15-1.66.44c-.51.29-.93.71-1.24,1.27-.32.56-.48,1.22-.48,1.99s.16,1.44.48,2.02c.32.58.74,1.02,1.25,1.32.52.3,1.07.46,1.65.46s1.15-.15,1.66-.45c.51-.3.93-.73,1.24-1.3.32-.57.48-1.24.48-2.01s-.16-1.44-.48-2Z"/>
          <path class="cls-1" d="m257.63,30.29c.69.36,1.24.9,1.63,1.62.39.71.59,1.58.59,2.59v6.57h-2.29v-6.23c0-1-.25-1.76-.75-2.3-.5-.53-1.18-.8-2.04-.8s-1.55.27-2.05.8c-.51.53-.76,1.3-.76,2.3v6.23h-2.31v-11.15h2.31v1.27c.38-.46.86-.82,1.45-1.07.59-.26,1.21-.38,1.87-.38.88,0,1.66.18,2.36.55Z"/>
          <path class="cls-1" d="m262.09,28.03c-.28-.28-.42-.63-.42-1.05s.14-.77.42-1.05c.28-.28.63-.42,1.05-.42s.75.14,1.03.42c.28.28.42.63.42,1.05s-.14.77-.42,1.05c-.28.28-.63.42-1.03.42s-.77-.14-1.05-.42Zm2.18,1.9v11.15h-2.31v-11.15h2.31Z"/>
          <path class="cls-1" d="m269.19,31.81v6.17c0,.42.1.72.29.9.2.18.53.27,1,.27h1.42v1.92h-1.82c-1.04,0-1.83-.24-2.39-.73-.55-.49-.83-1.27-.83-2.37v-6.17h-1.31v-1.88h1.31v-2.77h2.33v2.77h2.71v1.88h-2.71Z"/>
          <path class="cls-1" d="m273.33,28.03c-.28-.28-.42-.63-.42-1.05s.14-.77.42-1.05c.28-.28.63-.42,1.05-.42s.75.14,1.03.42c.28.28.42.63.42,1.05s-.14.77-.42,1.05c-.28.28-.63.42-1.03.42s-.77-.14-1.05-.42Zm2.18,1.9v11.15h-2.31v-11.15h2.31Z"/>
          <path class="cls-1" d="m287.88,36.36h-8.52c.07.89.4,1.61.99,2.14.59.54,1.32.81,2.18.81,1.24,0,2.12-.52,2.63-1.56h2.49c-.34,1.02-.95,1.86-1.83,2.52-.88.65-1.98.98-3.29.98-1.07,0-2.02-.24-2.86-.72-.84-.48-1.5-1.15-1.98-2.02-.48-.87-.72-1.88-.72-3.02s.23-2.15.7-3.02c.47-.87,1.12-1.54,1.96-2.01.84-.47,1.81-.71,2.9-.71s1.99.23,2.81.69c.82.46,1.46,1.1,1.92,1.93.46.83.69,1.78.69,2.86,0,.42-.03.8-.08,1.13Zm-2.33-1.86c-.01-.85-.32-1.53-.91-2.04-.59-.51-1.33-.77-2.21-.77-.8,0-1.48.25-2.04.76-.57.51-.9,1.19-1.01,2.05h6.17Z"/>
          <path class="cls-1" d="m291.11,40.78c-.69-.32-1.24-.75-1.65-1.29-.4-.55-.62-1.16-.65-1.83h2.39c.04.47.27.87.68,1.18s.93.48,1.55.48,1.15-.12,1.51-.37c.36-.25.54-.57.54-.96,0-.42-.2-.73-.6-.93-.4-.2-1.03-.42-1.89-.67-.84-.23-1.52-.45-2.04-.67-.53-.22-.98-.55-1.37-.99-.38-.45-.58-1.03-.58-1.76,0-.59.17-1.14.53-1.63.35-.49.85-.88,1.51-1.16.65-.28,1.41-.42,2.26-.42,1.27,0,2.29.32,3.06.96.78.64,1.19,1.51,1.24,2.62h-2.31c-.04-.5-.24-.9-.61-1.19-.36-.3-.86-.44-1.48-.44s-1.07.11-1.4.34c-.32.23-.49.53-.49.91,0,.3.11.55.32.75.22.2.48.36.79.48.31.11.77.26,1.38.44.81.22,1.47.43,1.99.66.52.22.97.55,1.34.98.38.43.57,1,.59,1.72,0,.63-.18,1.2-.53,1.7-.35.5-.85.89-1.49,1.17s-1.39.42-2.26.42-1.66-.16-2.36-.48Z"/>
          <path class="cls-1" d="m305.84,40.54c-.85-.48-1.52-1.15-2-2.02-.49-.87-.73-1.88-.73-3.02s.25-2.14.75-3.01c.5-.88,1.18-1.55,2.04-2.02.86-.47,1.83-.71,2.89-.71s2.03.24,2.89.71c.86.47,1.54,1.15,2.04,2.02.5.88.75,1.88.75,3.01s-.26,2.14-.77,3.01c-.51.88-1.21,1.55-2.09,2.03-.88.48-1.86.72-2.92.72s-2-.24-2.85-.72Zm4.52-1.71c.52-.28.94-.71,1.26-1.27.32-.57.49-1.25.49-2.06s-.16-1.49-.47-2.05c-.31-.56-.72-.98-1.23-1.26-.51-.28-1.07-.42-1.66-.42s-1.14.14-1.65.42c-.51.28-.91.71-1.2,1.26-.3.56-.45,1.24-.45,2.05,0,1.2.31,2.13.92,2.78.61.65,1.39.98,2.32.98.59,0,1.15-.14,1.67-.42Z"/>
          <path class="cls-1" d="m320.63,31.81h-2.06v9.26h-2.33v-9.26h-1.31v-1.88h1.31v-.79c0-1.28.34-2.21,1.02-2.8.68-.59,1.75-.88,3.21-.88v1.92c-.7,0-1.19.13-1.48.39-.28.26-.42.72-.42,1.37v.79h2.06v1.88Z"/>
          <path class="cls-1" d="m135.98,58.68c-.34.63-.88,1.15-1.62,1.55-.74.4-1.69.6-2.85.6h-2.55v5.7h-2.31v-14.06h4.85c1.08,0,1.99.19,2.74.56.75.37,1.31.87,1.68,1.51.37.63.56,1.34.56,2.12,0,.71-.17,1.39-.51,2.02Zm-2.51-.33c.43-.4.65-.96.65-1.69,0-1.54-.87-2.31-2.61-2.31h-2.55v4.59h2.55c.88,0,1.53-.2,1.96-.6Z"/>
          <path class="cls-1" d="m145.63,66.53l-5.44-6.29v6.29h-2.31v-14.06h2.31v6.41l5.46-6.41h2.89l-6.11,7.04,6.21,7.02h-3.01Z"/>
          <path class="cls-1" d="m152.17,52.47v8.96c0,1.07.28,1.87.84,2.41.56.54,1.34.81,2.34.81s1.8-.27,2.36-.81c.56-.54.84-1.34.84-2.41v-8.96h2.31v8.92c0,1.15-.25,2.12-.75,2.91-.5.8-1.17,1.39-2,1.78-.84.39-1.76.59-2.77.59s-1.93-.2-2.76-.59c-.83-.39-1.49-.98-1.97-1.78-.49-.8-.73-1.77-.73-2.91v-8.92h2.31Z"/>
        </g>
        <g>
          <path class="cls-1" d="m130.9,78.74h1.94v14.16h-1.94v-3.22c-1.2.53-2.41,1.03-3.43,1.46l-.81-1.89c1.06-.33,2.64-.88,4.24-1.46v-3.76h-3.71v-1.86h3.71v-3.43Zm8.07,12.17c.61,0,.7-.61.81-3.15.45.36,1.27.74,1.78.86-.19,2.99-.66,4.12-2.41,4.12h-2.05c-1.78,0-2.3-.63-2.3-2.82v-11.19h1.92v4.71c1.19-.77,2.35-1.64,3.21-2.38l1.39,1.63c-1.38.97-3.04,1.91-4.6,2.72v4.52c0,.88.08.97.66.97h1.58Z"/>
          <path class="cls-1" d="m147.71,89.16c-.86,1.25-2.07,2.64-3.11,3.55-.34-.36-.97-.88-1.36-1.17.97-.8,2.08-2.07,2.64-3.05l1.83.67Zm9.58-8.95v1.83h-13.79v-1.83h6.06c-.22-.45-.47-.92-.67-1.33l1.83-.58c.34.58.78,1.33,1.06,1.91h5.51Zm-5.84,7.51v3.43c0,.94-.17,1.42-.89,1.69-.67.27-1.61.28-2.86.28-.08-.55-.34-1.3-.59-1.8.8.03,1.78.02,2.03.02.27,0,.34-.05.34-.25v-3.36h-4.19v-4.9h10.34v4.9h-4.18Zm-4.3-1.6h6.51v-1.69h-6.51v1.69Zm7.39,2.32c.91.99,2.14,2.32,2.74,3.21l-1.64,1.1c-.53-.89-1.71-2.32-2.64-3.35l1.55-.95Z"/>
          <path class="cls-1" d="m168.12,84.57c1.03,3.05,2.93,5.51,5.85,6.7-.47.39-1.08,1.22-1.38,1.75-2.83-1.33-4.65-3.61-5.87-6.63-.85,2.61-2.54,5.05-5.85,6.65-.3-.52-.85-1.19-1.39-1.58,3.58-1.6,5.07-4.19,5.68-6.89h-5.38v-1.92h5.7c.16-1.47.14-2.9.16-4.18h2.03c-.02,1.28-.03,2.72-.19,4.18h6.15v1.92h-5.51Z"/>
          <path class="cls-1" d="m189.95,88.99h-6.07v2c0,.97-.23,1.44-.97,1.71-.74.28-1.72.3-3.05.3-.13-.53-.49-1.31-.77-1.8,1,.05,2.16.05,2.47.03.33,0,.41-.08.41-.28v-1.96h-5.96v-1.72h5.96v-.97c.59-.23,1.21-.56,1.77-.91h-4.93v-1.61h7.06l.38-.09,1.19.92c-.95.88-2.22,1.72-3.55,2.36v.3h6.07v1.72Zm-11.99-4.63h-1.75v-3.43h2.39c-.28-.53-.72-1.14-1.1-1.63l1.58-.7c.55.61,1.17,1.46,1.44,2.05l-.59.28h2.63c-.22-.63-.63-1.39-1.02-2l1.64-.61c.52.67,1.03,1.63,1.24,2.25l-.92.36h2.03c.5-.74,1.03-1.66,1.35-2.36l1.94.58c-.42.61-.89,1.22-1.33,1.78h2.28v3.43h-1.83v-1.78h-9.98v1.78Z"/>
          <path class="cls-1" d="m195.09,84.07c-.72.72-1.55,1.38-2.33,1.8-.2-.41-.61-1.02-.95-1.36.92-.38,1.91-1.06,2.64-1.83h-2.32v-1.47h1.22c-.13-.53-.49-1.33-.83-1.94l1.31-.55c.42.58.81,1.39.94,1.92l-1.27.56h1.58v-2.75h1.72v2.75h2.96v1.47h-2.28c.7.41,1.58.92,1.85,1.11l-.97,1.3c-.34-.33-.95-.85-1.55-1.31v1.71h-1.72v-1.41Zm2.52,8.01c-.31-.23-.72-.52-1.19-.8-1.05.8-2.3,1.36-3.71,1.75-.17-.42-.53-1.08-.85-1.39,1.13-.25,2.18-.66,3.07-1.21-.74-.39-1.52-.75-2.22-1.05.28-.41.58-.89.89-1.42h-1.19v-1.5h1.96c.14-.31.27-.61.38-.91l1.64.3c-.08.2-.17.41-.27.61h1.99l.28-.05,1,.38c-.38,1.38-1,2.5-1.8,3.41.42.23.8.47,1.11.69l-1.1,1.19Zm-2.21-4.12c-.16.3-.31.58-.47.83.42.2.86.42,1.27.64.44-.44.81-.92,1.1-1.47h-1.89Zm4.23-8.7c-.52.7-1,1.41-1.41,1.89l-1.19-.53c.36-.55.78-1.39,1.03-1.97l1.57.61Zm5.76,3.79c-.3,2.19-.77,4.02-1.5,5.56.72,1.24,1.67,2.22,2.85,2.86-.41.33-.95,1-1.21,1.47-1.08-.67-1.94-1.56-2.64-2.66-.89,1.19-2.02,2.13-3.47,2.86-.17-.38-.66-1.16-.99-1.52,1.58-.7,2.74-1.69,3.54-2.99-.45-.99-.8-2.08-1.11-3.27-.25.5-.53.97-.83,1.39-.25-.31-.95-.92-1.33-1.19,1.25-1.63,1.94-4.27,2.3-7.07l1.69.25c-.13.88-.28,1.75-.47,2.58h4.16v1.72h-.99Zm-3.44,0c.23,1.25.55,2.46.95,3.57.36-1.06.61-2.24.77-3.57h-1.72Z"/>
          <path class="cls-1" d="m222.34,88.58h-5.84v2.36c0,1-.23,1.5-1,1.78-.75.3-1.75.31-3.04.31-.13-.56-.49-1.39-.81-1.89.97.03,2.14.03,2.46.03s.41-.06.41-.28v-2.32h-5.81v-1.77h5.81v-.83c.66-.33,1.31-.8,1.91-1.28h-5.04v-1.74h6.92l.42-.09,1.24.97c-.91.95-2.14,1.96-3.46,2.71v.27h5.84v1.77Zm-11.72-5.05h-1.83v-3.58h5.85c-.19-.36-.39-.74-.61-1.03l1.86-.56c.38.47.75,1.1.95,1.6h5.38v3.58h-1.93v-1.83h-9.69v1.83Z"/>
          <path class="cls-1" d="m232.71,78.47c-.02.66-.05,1.5-.11,2.44.22,2.11,1.17,8.01,6.64,10.42-.58.45-1.11,1.08-1.36,1.61-3.47-1.66-5.21-4.71-6.12-7.4-.86,2.75-2.5,5.59-5.76,7.5-.33-.5-.92-1.1-1.55-1.52,6.35-3.4,6.06-10.41,6.12-13.05h2.14Z"/>
          <path class="cls-1" d="m252.83,82.9c-.8,2.25-1.86,4.08-3.22,5.6,1.61,1.25,3.58,2.16,5.92,2.71-.42.41-.97,1.22-1.25,1.74-2.46-.66-4.48-1.69-6.12-3.07-1.72,1.41-3.82,2.44-6.34,3.16-.2-.44-.75-1.31-1.13-1.74,2.44-.61,4.46-1.5,6.09-2.77-1.41-1.55-2.49-3.43-3.33-5.63h-2.46v-1.82h6.6c-.17-.64-.52-1.52-.88-2.21l1.99-.58c.41.72.88,1.72,1.06,2.36l-1.35.42h6.81v1.82h-2.39Zm-7.46,0c.67,1.64,1.61,3.1,2.82,4.33,1.08-1.19,1.94-2.61,2.55-4.33h-5.37Z"/>
          <path class="cls-1" d="m260.62,80.88c-.2,1.05-.49,2.11-.83,3.11h2.93v7.2h-2.99v1.14h-1.55v-4.87c-.2.3-.42.59-.64.86-.06-.5-.38-1.69-.63-2.22.95-1.28,1.6-3.18,1.99-5.23h-1.66v-1.69h5.68v1.69h-2.3Zm.52,4.76h-1.41v3.91h1.41v-3.91Zm10.52.94h-1.64v6.51h-1.77v-6.51h-1.78c-.09,2.3-.55,4.91-2.16,6.62-.31-.33-.99-.85-1.41-1.08,1.35-1.46,1.74-3.63,1.83-5.54h-1.46v-1.75h1.49v-3.87h-1.08v-1.72h7.67v1.72h-1.33v3.87h1.64v1.75Zm-3.41-1.75v-3.87h-1.75v3.87h1.75Z"/>
          <path class="cls-1" d="m285.84,91.05c.33,0,.39-.3.44-2.24.41.33,1.21.64,1.72.78-.17,2.54-.64,3.22-1.97,3.22h-1.39c-1.49,0-1.96-.53-1.96-2.35v-2.83h-2.28c-.2,2.05-1.33,4.21-5.63,5.4-.3-.49-.86-1.14-1.31-1.55,3.65-.99,4.73-2.46,4.99-3.85h-3.69v-1.72h3.77v-1.35h1.92v1.35h4.16v4.54c0,.52.05.59.38.59h.86Zm-10.12-7.97h-1.88v-3.08h5.79c-.16-.42-.31-.85-.49-1.22l1.99-.49c.28.53.59,1.19.78,1.71h5.52v2.93h-1.97v-1.31h-9.75v1.47Zm-1.53.99c1.39-.44,3.19-1.25,4.48-2.19l1.47.86c-1.36,1.08-3.22,2.11-4.76,2.66l-1.19-1.33Zm8.37-2.22c1.46.64,3.47,1.69,4.52,2.46l-1.36,1.11c-.92-.75-2.9-1.86-4.41-2.58l1.25-.99Z"/>
          <path class="cls-1" d="m303.35,81.16v7.81h-1.96v-.78h-3.54v4.88h-1.97v-4.88h-3.52v.86h-1.88v-7.89h5.4v-2.71h1.97v2.71h5.49Zm-7.46,5.2v-3.36h-3.52v3.36h3.52Zm5.51,0v-3.36h-3.54v3.36h3.54Z"/>
          <path class="cls-1" d="m308.99,84.18c-.22,2.02-.61,4.73-1.14,6.49l-1.88-.75c.55-1.66,1-4.01,1.21-6.09l1.82.34Zm2.94-1.27v7.26c0,.74.13.86.88.86h2.24c.78,0,.92-.5,1.03-2.94.44.33,1.24.66,1.75.78-.22,2.97-.72,3.9-2.64,3.9h-2.6c-2.03,0-2.6-.63-2.6-2.6v-7.26h1.94Zm-.14-4.21c1.41.89,3.4,2.27,4.34,3.24l-1.38,1.46c-.85-.95-2.77-2.44-4.23-3.43l1.27-1.27Zm6.82,4.63c.88,1.86,1.69,4.21,2.02,5.82l-1.89.78c-.23-1.6-1.05-4.07-1.86-5.9l1.74-.7Z"/>
        </g>
      </g>
    </g>
  </g>
</svg>