<?xml version="1.0" standalone="no"?><!DOCTYPE svg PUBLIC "-//W3C//DTD SVG 1.1//EN" "http://www.w3.org/Graphics/SVG/1.1/DTD/svg11.dtd"><svg t="1610535499218" class="icon" viewBox="0 0 1024 1024" version="1.1" xmlns="http://www.w3.org/2000/svg" p-id="2798" xmlns:xlink="http://www.w3.org/1999/xlink" width="16" height="16"><defs><style type="text/css"></style></defs><path d="M409.6 256a25.6 25.6 0 0 1 4.608 50.7904L409.6 307.2H230.4a25.6 25.6 0 0 0-25.1904 20.992L204.8 332.8v460.8a25.6 25.6 0 0 0 20.992 25.1904L230.4 819.2h460.8a25.6 25.6 0 0 0 25.1904-20.992L716.8 793.6V614.4a25.6 25.6 0 0 1 50.7904-4.608L768 614.4v179.2a76.8 76.8 0 0 1-69.4272 76.4416L691.2 870.4h-460.8a76.8 76.8 0 0 1-76.4416-69.4272L153.6 793.6v-460.8a76.8 76.8 0 0 1 69.4272-76.4416L230.4 256H409.6z m435.2-102.4a25.6 25.6 0 0 1 25.1904 20.992L870.4 179.2v256a25.6 25.6 0 0 1-50.7904 4.608L819.2 435.2l-0.0512-194.1504L368.9984 691.2a25.6 25.6 0 0 1-39.168-32.6656l2.9696-3.584L782.9504 204.8H588.8a25.6 25.6 0 0 1-25.1904-20.992L563.2 179.2a25.6 25.6 0 0 1 20.992-25.1904L588.8 153.6h256z" fill="#5c5c5c" p-id="2799"></path></svg>