<?xml version="1.0" standalone="no"?><!DOCTYPE svg PUBLIC "-//W3C//DTD SVG 1.1//EN" "http://www.w3.org/Graphics/SVG/1.1/DTD/svg11.dtd"><svg t="1681787026691" class="icon" viewBox="0 0 1024 1024" version="1.1" xmlns="http://www.w3.org/2000/svg" p-id="2513" xmlns:xlink="http://www.w3.org/1999/xlink" width="200" height="200"><path d="M469.333 256a42.667 42.667 0 1 0 0-85.333V256z m384 266.667a42.667 42.667 0 1 0-85.333 0h85.333z m-42.666-309.334h42.666a42.667 42.667 0 0 0-42.666-42.666v42.666zM640 170.667A42.667 42.667 0 1 0 640 256v-85.333zM768 384a42.667 42.667 0 1 0 85.333 0H768zM353.835 609.835a42.667 42.667 0 1 0 60.33 60.33l-60.33-60.33zM725.333 768H298.667v85.333h426.666V768zM256 725.333V298.667h-85.333v426.666H256zM298.667 256h170.666v-85.333H298.667V256zM768 522.667v202.666h85.333V522.667H768zM298.667 768A42.667 42.667 0 0 1 256 725.333h-85.333a128 128 0 0 0 128 128V768z m426.666 85.333a128 128 0 0 0 128-128H768A42.667 42.667 0 0 1 725.333 768v85.333zM256 298.667A42.667 42.667 0 0 1 298.667 256v-85.333a128 128 0 0 0-128 128H256z m554.667-128H640V256h170.667v-85.333zM768 213.333V384h85.333V213.333H768zM414.165 670.165L840.832 243.5l-60.33-60.331-426.667 426.667 60.33 60.33z" p-id="2514" fill="#888888"></path></svg>