<?xml version="1.0" standalone="no"?><!DOCTYPE svg PUBLIC "-//W3C//DTD SVG 1.1//EN" "http://www.w3.org/Graphics/SVG/1.1/DTD/svg11.dtd"><svg class="icon" width="200px" height="200.00px" viewBox="0 0 1024 1024" version="1.1" xmlns="http://www.w3.org/2000/svg"><path d="M145.906736 187.556477m23.875647 0l466.370985 0q23.875648 0 23.875648 23.875647l0-0.265285q0 23.875648-23.875648 23.875648l-466.370985 0q-23.875648 0-23.875647-23.875648l0 0.265285q0-23.875648 23.875647-23.875647Z" fill="#134880" /><path d="M145.906736 439.577202m23.875647 0l270.325389 0q23.875648 0 23.875648 23.875648l0-0.265285q0 23.875648-23.875648 23.875647l-270.325389 0q-23.875648 0-23.875647-23.875647l0 0.265285q0-23.875648 23.875647-23.875648Z" fill="#134880" /><path d="M145.906736 696.638342m23.875647 0l270.325389 0q23.875648 0 23.875648 23.875648l0-0.265285q0 23.875648-23.875648 23.875647l-270.325389 0q-23.875648 0-23.875647-23.875647l0 0.265285q0-23.875648 23.875647-23.875648Z" fill="#134880" /><path d="M733.247668 648.887047a19.100518 19.100518 0 0 1 19.100519 19.100518V822.38342h79.585492a19.100518 19.100518 0 0 1 0 38.466321h-98.686011a19.100518 19.100518 0 0 1-19.100518-19.100518v-173.761658a19.100518 19.100518 0 0 1 19.100518-19.100518z" fill="#134880" /><path d="M508.81658 1024H123.622798A89.401036 89.401036 0 0 1 34.487047 934.864249V89.135751A89.401036 89.401036 0 0 1 123.622798 0h721.04456a89.401036 89.401036 0 0 1 89.135751 89.135751v399.519171a26.528497 26.528497 0 1 1-53.056995 0V89.135751A36.078756 36.078756 0 0 0 844.667358 53.056995H123.622798A36.078756 36.078756 0 0 0 87.544041 89.135751v845.728498a36.078756 36.078756 0 0 0 36.078757 36.078756h385.193782a26.528497 26.528497 0 0 1 0 53.056995z" fill="#134880" /><path d="M970.67772 766.40829a18.835233 18.835233 0 0 0-18.835233 18.835233 197.106736 197.106736 0 1 1-99.21658-169.782383l-24.936788 12.998964a15.386528 15.386528 0 1 0 14.060104 26.528497l48.01658-24.936788a14.855959 14.855959 0 0 0 7.958549-15.651813 14.855959 14.855959 0 0 0 0-1.59171l-7.162694-55.709844a15.386528 15.386528 0 0 0-17.243523-13.264249 15.386528 15.386528 0 0 0-13.264249 17.243523l2.12228 15.651814A233.185492 233.185492 0 1 0 989.512953 785.243523a18.835233 18.835233 0 0 0-18.835233-18.835233z" fill="#134880" /></svg>